<svg width="36" height="36" viewBox="0 0 36 36" fill="none" xmlns="http://www.w3.org/2000/svg">
<path d="M17.667 0.00585938C8.0043 0.00585938 0.162109 7.8604 0.162109 17.5383C0.162109 27.2162 8.0043 35.0708 17.667 35.0708C27.3297 35.0708 35.1719 27.2162 35.1719 17.5383C35.1719 7.8604 27.3297 0.00585938 17.667 0.00585938ZM17.667 5.26559C20.5728 5.26559 22.9185 7.61494 22.9185 10.5253C22.9185 13.4357 20.5728 15.7851 17.667 15.7851C14.7612 15.7851 12.4155 13.4357 12.4155 10.5253C12.4155 7.61494 14.7612 5.26559 17.667 5.26559ZM17.667 30.1617C13.2908 30.1617 9.42219 27.9175 7.16406 24.5162C7.21658 21.0273 14.166 19.1162 17.667 19.1162C21.1505 19.1162 28.1174 21.0273 28.1699 24.5162C25.9118 27.9175 22.0432 30.1617 17.667 30.1617Z" fill="#FAC516"/>
</svg>
